<svg width="106" height="30" viewBox="0 0 106 30" fill="none" xmlns="http://www.w3.org/2000/svg">
<path d="M16.6773 10.3062C16.5821 10.2175 16.5057 10.1105 16.4527 9.99161C16.3997 9.87271 16.3713 9.74436 16.369 9.61422C16.3667 9.48408 16.3906 9.35481 16.4393 9.23412C16.4881 9.11343 16.5607 9.0038 16.6527 8.91176C16.7447 8.81972 16.8544 8.74716 16.9751 8.69841C17.0957 8.64966 17.225 8.62572 17.3552 8.62802C17.4853 8.63032 17.6136 8.6588 17.7325 8.71178C17.8514 8.76475 17.9584 8.84113 18.0472 8.93636L23.2165 14.1057C23.398 14.2875 23.5 14.5338 23.5 14.7907C23.5 15.0475 23.398 15.2939 23.2165 15.4756L18.0472 20.645C17.9584 20.7402 17.8514 20.8166 17.7325 20.8695C17.6136 20.9225 17.4853 20.951 17.3552 20.9533C17.225 20.9556 17.0957 20.9317 16.9751 20.8829C16.8544 20.8342 16.7447 20.7616 16.6527 20.6696C16.5607 20.5775 16.4881 20.4679 16.4393 20.3472C16.3906 20.2265 16.3667 20.0972 16.369 19.9671C16.3713 19.837 16.3997 19.7086 16.4527 19.5897C16.5057 19.4708 16.5821 19.3638 16.6773 19.2751L20.1925 15.7599L7.66969 15.7599C7.41263 15.7599 7.16609 15.6578 6.98432 15.476C6.80255 15.2943 6.70044 15.0477 6.70044 14.7907C6.70044 14.5336 6.80255 14.2871 6.98432 14.1053C7.16609 13.9235 7.41263 13.8214 7.66969 13.8214L20.1925 13.8214L16.6773 10.3062Z" fill="#CDCDCD"/>
<path d="M54.8882 10.3062C54.793 10.2175 54.7166 10.1105 54.6637 9.99161C54.6107 9.87271 54.5822 9.74436 54.5799 9.61422C54.5776 9.48408 54.6015 9.35481 54.6503 9.23412C54.699 9.11343 54.7716 9.0038 54.8636 8.91176C54.9557 8.81972 55.0653 8.74716 55.186 8.69841C55.3067 8.64966 55.436 8.62572 55.5661 8.62802C55.6962 8.63032 55.8246 8.6588 55.9435 8.71178C56.0624 8.76475 56.1694 8.84113 56.2581 8.93636L61.4275 14.1057C61.609 14.2875 61.7109 14.5338 61.7109 14.7907C61.7109 15.0475 61.609 15.2939 61.4275 15.4756L56.2581 20.645C56.1694 20.7402 56.0624 20.8166 55.9435 20.8695C55.8246 20.9225 55.6962 20.951 55.5661 20.9533C55.436 20.9556 55.3067 20.9317 55.186 20.8829C55.0653 20.8342 54.9557 20.7616 54.8636 20.6696C54.7716 20.5775 54.699 20.4679 54.6503 20.3472C54.6015 20.2265 54.5776 20.0972 54.5799 19.9671C54.5822 19.837 54.6107 19.7086 54.6637 19.5897C54.7166 19.4708 54.793 19.3638 54.8882 19.2751L58.4034 15.7599L45.8806 15.7599C45.6236 15.7599 45.377 15.6578 45.1953 15.476C45.0135 15.2943 44.9114 15.0477 44.9114 14.7907C44.9114 14.5336 45.0135 14.2871 45.1953 14.1053C45.377 13.9235 45.6236 13.8214 45.8806 13.8214L58.4034 13.8214L54.8882 10.3062Z" fill="#787878"/>
<path d="M93.0953 10.3062C93 10.2175 92.9237 10.1105 92.8707 9.99161C92.8177 9.87271 92.7892 9.74436 92.7869 9.61422C92.7846 9.48408 92.8086 9.35481 92.8573 9.23412C92.9061 9.11343 92.9786 9.0038 93.0707 8.91176C93.1627 8.81972 93.2723 8.74716 93.393 8.69841C93.5137 8.64966 93.643 8.62572 93.7731 8.62802C93.9033 8.63032 94.0316 8.6588 94.1505 8.71178C94.2694 8.76475 94.3764 8.84113 94.4651 8.93636L99.6345 14.1057C99.816 14.2875 99.918 14.5338 99.918 14.7907C99.918 15.0475 99.816 15.2939 99.6345 15.4756L94.4651 20.645C94.3764 20.7402 94.2694 20.8166 94.1505 20.8695C94.0316 20.9225 93.9033 20.951 93.7731 20.9533C93.643 20.9556 93.5137 20.9317 93.393 20.8829C93.2723 20.8342 93.1627 20.7616 93.0707 20.6696C92.9786 20.5775 92.9061 20.4679 92.8573 20.3472C92.8086 20.2265 92.7846 20.0972 92.7869 19.9671C92.7892 19.837 92.8177 19.7086 92.8707 19.5897C92.9237 19.4708 93 19.3638 93.0953 19.2751L96.6104 15.7599L84.0877 15.7599C83.8306 15.7599 83.5841 15.6578 83.4023 15.476C83.2205 15.2943 83.1184 15.0477 83.1184 14.7907C83.1184 14.5336 83.2205 14.2871 83.4023 14.1053C83.5841 13.9235 83.8306 13.8214 84.0877 13.8214L96.6104 13.8214L93.0953 10.3062Z" fill="black"/>
</svg>
